<?xml version="1.0" encoding="UTF-8"?>
<svg width="79px" height="18px" viewBox="0 0 79 18" version="1.1" xmlns="http://www.w3.org/2000/svg" xmlns:xlink="http://www.w3.org/1999/xlink">
    <!-- Generator: Sketch 48.2 (47327) - http://www.bohemiancoding.com/sketch -->
    <title>albato_logo_green</title>
    <desc>Created with Sketch.</desc>
    <defs></defs>
    <g id="calltouch_calltracking+product_dropdown" stroke="none" stroke-width="1" fill="none" fill-rule="evenodd" transform="translate(-524.000000, -526.000000)">
        <g id="product_menu_dropdow" transform="translate(112.000000, 140.000000)" fill="#E17352">
            <g id="albato_logo_green" transform="translate(412.000000, 386.000000)">
                <path d="M9.81943909,11.7631579 C9.81943909,10.9151042 9.51686522,10.0944071 8.91171747,9.49256255 C8.33407644,8.890718 7.5638884,8.56243916 6.73868693,8.56243916 C5.91348545,8.56243916 5.14329741,8.890718 4.53814966,9.49256255 C3.96050863,10.0944071 3.63042804,10.9151042 3.63042804,11.7631579 C3.63042804,12.6112116 3.96050863,13.4045521 4.53814966,14.0337532 C5.14329741,14.6355978 5.91348545,14.9638766 6.73868693,14.9638766 C7.5638884,14.9638766 8.33407644,14.6355978 8.91171747,14.0337532 C9.51686522,13.4045521 9.81943909,12.6112116 9.81943909,11.7631579 L9.81943909,11.7631579 Z M13.2852853,5.8819512 L13.2852853,17.6717212 L10.3695734,17.6717212 L10.3695734,16.5227452 C9.26930478,17.4528686 7.83895556,18 6.29857947,18 C2.80568501,18 0,15.2100858 0,11.7631579 C0,8.28887346 2.80568501,5.52631579 6.29857947,5.52631579 C7.83895556,5.52631579 9.26930478,6.0734472 10.3695734,7.00357059 L10.6446406,5.8819512 L13.2852853,5.8819512 L13.2852853,5.8819512 Z" id="Fill-1"></path>
                <polygon id="Fill-3" points="16.2112112 17.6842105 19.6906907 17.6842105 19.6906907 0 16.2112112 0"></polygon>
                <path d="M33.309067,11.7166015 C33.309067,10.8659485 32.9798561,10.0701763 32.403737,9.43950404 C31.8276179,8.83535749 31.0594591,8.50607246 30.2364318,8.50607246 C29.4134045,8.50607246 28.6178114,8.83535749 28.0416923,9.43950404 C27.4660304,10.0701763 27.1363622,10.8659485 27.1363622,11.7166015 C27.1363622,12.5672544 27.4660304,13.390467 28.0416923,13.9941562 C28.6178114,14.5978454 29.4134045,14.9271304 30.2364318,14.9271304 C31.0594591,14.9271304 31.8276179,14.5978454 32.403737,13.9941562 C32.9798561,13.390467 33.309067,12.5672544 33.309067,11.7166015 L33.309067,11.7166015 Z M26.2863579,7.21683012 C27.4111619,6.11921337 28.9749138,5.43320291 30.6753797,5.43320291 C34.1320943,5.43320291 36.9299299,8.25910869 36.9299299,11.7166015 C36.9299299,15.2015346 34.1320943,18 30.6753797,18 C28.9749138,18 27.4111619,17.3144469 26.2863579,16.2168301 L26.2863579,17.6711723 L22.7747748,17.6711723 L22.7747748,0 L26.2863579,0 L26.2863579,7.21683012 Z" id="Fill-5"></path>
                <path d="M48.3309506,11.7631579 C48.3309506,10.9151042 48.0283767,10.0944071 47.423229,9.49256255 C46.845588,8.890718 46.0753999,8.56243916 45.2501984,8.56243916 C44.424997,8.56243916 43.6548089,8.890718 43.0496612,9.49256255 C42.4720201,10.0944071 42.1419396,10.9151042 42.1419396,11.7631579 C42.1419396,12.6112116 42.4720201,13.4045521 43.0496612,14.0337532 C43.6548089,14.6355978 44.424997,14.9638766 45.2501984,14.9638766 C46.0753999,14.9638766 46.845588,14.6355978 47.423229,14.0337532 C48.0283767,13.4045521 48.3309506,12.6112116 48.3309506,11.7631579 L48.3309506,11.7631579 Z M51.7967968,5.8819512 L51.7967968,17.6717212 L48.8810849,17.6717212 L48.8810849,16.5227452 C47.7808163,17.4528686 46.3504671,18 44.810091,18 C41.3167381,18 38.5115115,15.2100858 38.5115115,11.7631579 C38.5115115,8.28887346 41.3167381,5.52631579 44.810091,5.52631579 C46.3504671,5.52631579 47.7808163,6.0734472 48.8810849,7.00357059 L49.1561521,5.8819512 L51.7967968,5.8819512 Z" id="Fill-6"></path>
                <polygon id="Fill-7" points="64.5285285 5.84210526 64.5285285 9.05690781 60.8734399 9.05690781 60.8734399 17.6842105 57.391968 17.6842105 57.391968 9.05690781 54.011011 9.05690781 54.011011 5.84210526"></polygon>
                <path d="M75.5323358,11.7358013 C75.5323358,10.8877476 75.2296032,10.0944071 74.6516592,9.49256255 C74.046194,8.86336143 73.3035818,8.53508259 72.4499677,8.53508259 C71.6523132,8.53508259 70.8542,8.86336143 70.3037771,9.49256255 C69.6707908,10.0944071 69.3680582,10.9151042 69.3680582,11.7631579 C69.3680582,12.6385681 69.6707908,13.4319087 70.3037771,14.0611098 C70.8542,14.6629544 71.6523132,14.9912332 72.4499677,14.9912332 C73.3035818,14.9912332 74.046194,14.6629544 74.6516592,14.0611098 C75.2296032,13.4319087 75.5323358,12.6112116 75.5323358,11.7358013 M79,11.7631579 C79,15.2374423 76.0827587,18 72.4229052,18 C68.7901142,18 65.8728729,15.2374423 65.8728729,11.7631579 C65.8728729,8.31623003 68.7901142,5.52631579 72.4229052,5.52631579 C76.0827587,5.52631579 79,8.31623003 79,11.7631579" id="Fill-8"></path>
                <polygon id="Fill-9" points="54.011011 3.23684211 64.5285285 3.23684211 64.5285285 0 54.011011 0"></polygon>
            </g>
        </g>
    </g>
</svg>