<?xml version="1.0" encoding="UTF-8"?>
<svg width="48px" height="48px" viewBox="0 0 48 48" version="1.1" xmlns="http://www.w3.org/2000/svg" xmlns:xlink="http://www.w3.org/1999/xlink">
    <!-- Generator: Sketch 48.2 (47327) - http://www.bohemiancoding.com/sketch -->
    <title>facebook</title>
    <desc>Created with Sketch.</desc>
    <defs></defs>
    <g id="calltouch_calltracking+product_dropdown" stroke="none" stroke-width="1" fill="none" fill-rule="evenodd" transform="translate(-1064.000000, -10682.000000)">
        <g id="page" transform="translate(-223.000000, 223.000000)" fill="#8F9496">
            <g id="black" transform="translate(223.000000, 10365.000000)">
                <g id="footer" transform="translate(136.000000, 64.000000)">
                    <path d="M952.003161,30 C938.74674,30 928,40.7467404 928,54.0031608 C928,67.2532596 938.74674,78 952.003161,78 C965.25326,78 976,67.2532596 976,54.0031608 C976,40.7467404 965.25326,30 952.003161,30 L952.003161,30 Z M963.679178,64.1493481 C963.679178,64.8573686 963.33149,65.6102726 962.629791,65.6102726 L956.725405,65.6102726 L956.725405,56.7600158 L959.728171,56.7600158 L960.183327,52.9670486 L956.725405,52.9670486 L956.725405,50.7032793 C956.725405,49.6918214 956.997234,49.1740814 958.451205,49.1740814 L960.518372,49.1740814 L960.518372,45.8672461 C959.886211,45.8229949 958.906361,45.7281707 957.623074,45.7281707 C954.955354,45.7281707 952.932438,47.3591466 952.932438,50.3555907 L952.932438,52.9670486 L949.771632,52.9670486 L949.771632,56.7600158 L952.932438,56.7600158 L952.932438,65.6102726 L941.983406,65.6102726 C941.275385,65.6102726 940.921375,64.8573686 940.921375,64.1493481 L940.921375,43.5029633 C940.921375,42.7949427 941.275385,42.2203082 941.983406,42.2203082 L962.629791,42.2203082 C963.33149,42.2203082 963.679178,42.7949427 963.679178,43.5029633 L963.679178,64.1493481 L963.679178,64.1493481 Z" id="facebook"></path>
                </g>
            </g>
        </g>
    </g>
</svg>