<?xml version="1.0" encoding="UTF-8"?>
<svg width="48px" height="48px" viewBox="0 0 48 48" version="1.1" xmlns="http://www.w3.org/2000/svg" xmlns:xlink="http://www.w3.org/1999/xlink">
    <!-- Generator: Sketch 48.2 (47327) - http://www.bohemiancoding.com/sketch -->
    <title>ok</title>
    <desc>Created with Sketch.</desc>
    <defs></defs>
    <g id="calltouch_calltracking+product_dropdown" stroke="none" stroke-width="1" fill="none" fill-rule="evenodd" transform="translate(-1192.000000, -10682.000000)">
        <g id="page" transform="translate(-223.000000, 223.000000)" fill="#8F9496">
            <g id="black" transform="translate(223.000000, 10365.000000)">
                <g id="footer" transform="translate(136.000000, 64.000000)">
                    <path d="M1080.00316,30 C1093.25326,30 1104,40.7467404 1104,54.0031608 C1104,67.2532596 1093.25326,78 1080.00316,78 C1066.74674,78 1056,67.2532596 1056,54.0031608 C1056,40.7467404 1066.74674,30 1080.00316,30 Z M1083.2463,60.8000716 C1084.88058,60.4407083 1086.45419,59.8157287 1087.90243,58.936851 C1088.99869,58.268904 1089.3304,56.8705511 1088.63862,55.8080466 C1087.94688,54.7455812 1086.49872,54.4252791 1085.39838,55.0932261 C1082.11363,57.0892549 1077.88634,57.0853488 1074.6016,55.0932261 C1073.50133,54.4252791 1072.05309,54.7455812 1071.36135,55.8080466 C1070.66961,56.8666059 1071.00132,58.268904 1072.09758,58.936851 C1073.54578,59.8157287 1075.11939,60.4407083 1076.75367,60.8000716 L1072.27557,65.1280557 C1071.35734,66.0147066 1071.35734,67.4482536 1072.27557,68.3349826 C1072.73673,68.7763745 1073.33543,68.9990235 1073.93413,68.9990235 C1074.53687,68.9990235 1075.13557,68.7763745 1075.59677,68.3349826 L1080.00201,64.0812148 L1084.40729,68.3349826 C1085.32556,69.2216725 1086.81017,69.2216725 1087.72844,68.3349826 C1088.64671,67.4482927 1088.64671,66.0108395 1087.72844,65.1280557 L1083.2463,60.8000716 Z M1080.00201,54.483871 C1084.42351,54.483871 1088.0197,51.0113278 1088.0197,46.7458025 C1088.0197,42.4725432 1084.42351,39 1080.00201,39 C1075.58055,39 1071.98436,42.4725432 1071.98436,46.7419355 C1071.98436,51.0113278 1075.58055,54.483871 1080.00201,54.483871 Z M1080.00201,43.5389147 C1081.83455,43.5389147 1083.3232,44.976368 1083.3232,46.7458416 C1083.3232,48.5114091 1081.83455,49.9488623 1080.00201,49.9488623 C1078.17359,49.9488623 1076.68086,48.5114091 1076.68086,46.7458416 C1076.68086,44.976368 1078.17359,43.5389147 1080.00201,43.5389147 Z" id="ok"></path>
                </g>
            </g>
        </g>
    </g>
</svg>