<?xml version="1.0" encoding="UTF-8"?>
<svg width="15px" height="16px" viewBox="0 0 15 16" version="1.1" xmlns="http://www.w3.org/2000/svg" xmlns:xlink="http://www.w3.org/1999/xlink">
    <!-- Generator: Sketch 48.2 (47327) - http://www.bohemiancoding.com/sketch -->
    <title>Combined Shape</title>
    <desc>Created with Sketch.</desc>
    <defs></defs>
    <g id="calltouch_calltracking_partners_dropdown" stroke="none" stroke-width="1" fill="none" fill-rule="evenodd" transform="translate(-1104.000000, -107.000000)">
        <g id="header" fill="#F2C400" fill-rule="nonzero">
            <path d="M1118.79334,110.848387 C1119.06889,111.133452 1119.06889,111.593048 1118.79334,111.877386 L1117.28809,113.430703 L1112.75821,108.756208 L1108.72587,112.916567 L1107.72941,111.887567 L1112.25998,107.213072 C1112.39177,107.076357 1112.57147,107 1112.75821,107 C1112.94496,107 1113.12396,107.076357 1113.25644,107.213072 L1114.26841,108.257343 L1114.7765,107.732299 C1115.05134,107.44796 1115.49742,107.44796 1115.77296,107.732299 L1118.79334,110.848387 Z M1116.35604,114.555685 L1110.29472,120.617005 L1106.14968,116.471966 L1112.211,110.410646 L1116.35604,114.555685 Z M1109.0444,121.546349 L1104.92678,122.962951 C1104.67379,123.049488 1104.39402,122.981858 1104.20657,122.786966 C1104.017,122.593529 1103.95217,122.3041 1104.03603,122.043759 L1105.4081,117.794681 L1109.0444,121.546349 Z" id="Combined-Shape"></path>
        </g>
    </g>
</svg>