<?xml version="1.0" encoding="UTF-8"?>
<svg width="16px" height="16px" viewBox="0 0 16 16" version="1.1" xmlns="http://www.w3.org/2000/svg" xmlns:xlink="http://www.w3.org/1999/xlink">
    <!-- Generator: Sketch 48.2 (47327) - http://www.bohemiancoding.com/sketch -->
    <title>Shape</title>
    <desc>Created with Sketch.</desc>
    <defs></defs>
    <g id="calltouch_calltracking" stroke="none" stroke-width="1" fill="none" fill-rule="evenodd" transform="translate(-359.000000, -42.000000)" opacity="0.5">
        <g id="header" fill="#FFFFFF" fill-rule="nonzero">
            <path d="M370.897856,52.1298149 C372.765704,49.3516515 372.218796,45.6092959 369.63404,43.4818357 C367.049285,41.3543756 363.271601,41.5372482 360.904425,43.9044247 C358.537248,46.2716013 358.354376,50.0492846 360.481836,52.6340405 C362.609296,55.2187964 366.351651,55.765704 369.129815,53.8978556 L372.880962,57.6490026 C373.371586,58.1228628 374.151456,58.1160859 374.633771,57.6337712 C375.116086,57.1514565 375.122863,56.3715856 374.649003,55.880962 L370.897856,52.1298149 Z M365.501205,52.5024288 C363.291391,52.5024288 361.499982,50.71102 361.499982,48.5012053 C361.499982,46.2913905 363.291391,44.4999817 365.501205,44.4999817 C367.71102,44.4999817 369.502429,46.2913905 369.502429,48.5012053 C369.502429,49.5623957 369.080873,50.5801226 368.330498,51.3304976 C367.580123,52.0808726 366.562396,52.5024288 365.501205,52.5024288 Z" id="Shape"></path>
        </g>
    </g>
</svg>