<?xml version="1.0" encoding="UTF-8"?>
<svg width="48px" height="48px" viewBox="0 0 48 48" version="1.1" xmlns="http://www.w3.org/2000/svg" xmlns:xlink="http://www.w3.org/1999/xlink">
    <!-- Generator: Sketch 48.2 (47327) - http://www.bohemiancoding.com/sketch -->
    <title>vk</title>
    <desc>Created with Sketch.</desc>
    <defs></defs>
    <g id="calltouch_calltracking+product_dropdown" stroke="none" stroke-width="1" fill="none" fill-rule="evenodd" transform="translate(-1128.000000, -10682.000000)">
        <g id="page" transform="translate(-223.000000, 223.000000)" fill="#8F9496">
            <g id="black" transform="translate(223.000000, 10365.000000)">
                <g id="footer" transform="translate(136.000000, 64.000000)">
                    <path d="M1016.00316,30 C1029.25326,30 1040,40.7467404 1040,54.0031608 C1040,67.2532596 1029.25326,78 1016.00316,78 C1002.74674,78 992,67.2532596 992,54.0031608 C992,40.7467404 1002.74674,30 1016.00316,30 Z M1030.28874,47.2187895 C1030.5041,46.5163158 1030.28874,46 1029.26308,46 L1025.87166,46 C1025.00928,46 1024.61175,46.4459737 1024.39616,46.9376579 C1024.39616,46.9376579 1022.67162,51.0478158 1020.22835,53.7175 C1019.4379,54.4903158 1019.07866,54.7361579 1018.64746,54.7361579 C1018.43187,54.7361579 1018.11985,54.4903158 1018.11985,53.7878421 L1018.11985,47.2187895 C1018.11985,46.3756316 1017.86962,46 1017.15088,46 L1011.82151,46 C1011.28252,46 1010.95839,46.3912632 1010.95839,46.7621579 C1010.95839,47.5612632 1012.18003,47.7457632 1012.306,49.9938684 L1012.306,54.8768421 C1012.306,55.9473684 1012.10833,56.1415789 1011.67713,56.1415789 C1010.52744,56.1415789 1007.73073,52.0129474 1006.07209,47.2891316 C1005.747,46.3708947 1005.42094,46 1004.55419,46 L1001.16277,46 C1000.1938,46 1000,46.4459737 1000,46.9376579 C1000,47.8158684 1001.14969,52.1718684 1005.35335,57.9330526 C1008.15587,61.8672368 1012.10445,64 1015.69741,64 C1017.85314,64 1018.11985,63.5263158 1018.11985,62.7103947 L1018.11985,59.7368421 C1018.11985,58.7894737 1018.32407,58.6004737 1019.00671,58.6004737 C1019.50961,58.6004737 1020.372,58.8463158 1022.38408,60.7431842 C1024.6837,62.9915263 1025.06281,64 1026.35615,64 L1029.74757,64 C1030.71655,64 1031.20103,63.5263158 1030.92148,62.5915 C1030.61577,61.6597632 1029.51768,60.3081053 1028.06107,58.7058684 C1027.27062,57.7923684 1026.08484,56.809 1025.72559,56.3170789 C1025.22245,55.6847105 1025.36634,55.4035789 1025.72559,54.8415526 C1025.72559,54.8415526 1029.85755,49.1509474 1030.28874,47.2187895 Z" id="vk"></path>
                </g>
            </g>
        </g>
    </g>
</svg>