<?xml version="1.0" encoding="UTF-8"?>
<svg width="48px" height="48px" viewBox="0 0 48 48" version="1.1" xmlns="http://www.w3.org/2000/svg" xmlns:xlink="http://www.w3.org/1999/xlink">
    <!-- Generator: Sketch 48.2 (47327) - http://www.bohemiancoding.com/sketch -->
    <title>youtube</title>
    <desc>Created with Sketch.</desc>
    <defs></defs>
    <g id="calltouch_calltracking+product_dropdown" stroke="none" stroke-width="1" fill="none" fill-rule="evenodd" transform="translate(-1256.000000, -10682.000000)">
        <g id="page" transform="translate(-223.000000, 223.000000)" fill="#8F9496">
            <g id="black" transform="translate(223.000000, 10365.000000)">
                <g id="footer" transform="translate(136.000000, 64.000000)">
                    <path d="M1144.00316,30 C1157.25326,30 1168,40.7467404 1168,54.0031608 C1168,67.2532596 1157.25326,78 1144.00316,78 C1130.74674,78 1120,67.2532596 1120,54.0031608 C1120,40.7467404 1130.74674,30 1144.00316,30 Z M1130,54 C1130,57.6666667 1130.48799,59.7100478 1130.48799,59.7100478 C1130.8283,62.0130529 1133.04553,64.1119631 1135.39259,64.4082255 C1135.39259,64.4082255 1138.85714,65 1144,65 C1149.14286,65 1152.6037,64.4086383 1152.6037,64.4086383 C1154.95552,64.1278021 1157.14327,62.0096251 1157.49623,59.7125222 C1157.49623,59.7125222 1158,57.3846154 1158,54 C1158,50.6153846 1157.49623,48.2874778 1157.49623,48.2874778 C1157.16191,45.9898321 1154.95928,43.8641826 1152.61816,43.5384944 C1152.61816,43.5384944 1150.42857,43 1144,43 C1137.57143,43 1135.38545,43.5380816 1135.38545,43.5380816 C1133.03891,43.8369309 1130.85003,45.9887435 1130.48882,48.283834 C1130.48882,48.283834 1130,50.3333333 1130,54 Z M1141.78956,58.912228 C1141.11681,59.3147318 1140.57143,59.0102787 1140.57143,58.2349575 L1140.57143,49.7650425 C1140.57143,48.9884925 1141.1191,48.6866423 1141.78956,49.087772 L1148.78187,53.2712024 C1149.45462,53.6737062 1149.45233,54.3276679 1148.78187,54.7287976 L1141.78956,58.912228 Z" id="youtube"></path>
                </g>
            </g>
        </g>
    </g>
</svg>