<svg width="28" height="30" viewBox="0 0 28 30" xmlns="http://www.w3.org/2000/svg">
    <title>
        calltouch_calltracking-32
    </title>
    <g fill-rule="nonzero" fill="none">
        <path d="M13.984 21c-1.627 0-3.061-.793-3.975-2H6.573c1.19 2.928 4.061 5 7.411 5 4.411 0 8-3.589 8-8 0-2.947-1.606-5.52-3.984-6.908v3.958c.611.829.984 1.844.984 2.95 0 2.757-2.243 5-5 5zM18 2.592V5.77c4.083 1.608 6.984 5.583 6.984 10.23 0 6.065-4.935 11-11 11-5.024 0-9.263-3.39-10.574-8H.314c1.375 6.289 6.969 11 13.67 11 7.732 0 14-6.268 14-14 0-6.336-4.211-11.682-9.984-13.408z" fill="#1EB0CD"/>
        <path d="M13 0v2.05C5.741 2.559-.015 8.611-.016 16h9A5.007 5.007 0 0 1 13 11.1V16a1 1 0 1 0 2 0V0h-2z" fill="#FFF"/>
    </g>
</svg>
