<svg width="28" height="30" viewBox="0 0 28 30" xmlns="http://www.w3.org/2000/svg">
    <title>
        calltouch_platform-32
    </title>
    <g fill-rule="nonzero" fill="none">
        <path d="M3.797 3.676L14 13.879 24.203 3.676A15.936 15.936 0 0 0 14 0 15.936 15.936 0 0 0 3.797 3.676z" fill="#FFF"/>
        <path d="M24.901 24.779a13.922 13.922 0 0 0 3.018-7.279H17.622l7.279 7.279zM27.919 14.5a13.929 13.929 0 0 0-3.018-7.28l-7.28 7.28h10.298zM0 16c0 7.732 6.268 14 14 14 3.326 0 6.378-1.162 8.78-3.099L3.099 7.22A13.935 13.935 0 0 0 0 16z" fill="#1EB0CD"/>
    </g>
</svg>
