<?xml version="1.0" encoding="UTF-8"?>
<svg width="191px" height="48px" viewBox="0 0 191 48" version="1.1" xmlns="http://www.w3.org/2000/svg" xmlns:xlink="http://www.w3.org/1999/xlink">
    <!-- Generator: Sketch 48.2 (47327) - http://www.bohemiancoding.com/sketch -->
    <title>logo</title>
    <desc>Created with Sketch.</desc>
    <defs></defs>
    <g id="calltouch_calltracking" stroke="none" stroke-width="1" fill="none" fill-rule="evenodd" transform="translate(-136.000000, -24.000000)">
        <g id="header">
            <g id="logo" transform="translate(136.000000, 24.000000)">
                <path d="M65.803154,13.2008471 C68.6162817,13.1754353 71.649484,14.0586353 73.7551084,16.0729412 L71.9055811,19.0037647 C70.3813814,17.7122824 68.1040876,16.7618824 66.0170373,16.7805176 C61.2980972,16.8234353 58.8480082,20.2754824 58.8840307,24.2510118 C58.9200531,28.2875294 61.5243632,31.9366588 66.1830782,31.8943059 C68.4817604,31.8734118 70.7708741,30.7298824 72.3896326,29.1063529 L74.4721801,31.9106824 C72.6440411,33.8086588 69.9057726,35.4423529 66.0637539,35.4768 C59.3179885,35.5377882 54.9181848,30.6909176 54.8613369,24.3481412 C54.8050518,18.0962824 59.3298084,13.2595765 65.803154,13.2008471" id="Fill-1" fill="#FFFFFF"></path>
                <path d="M82.2513956,32.3863906 C84.3992338,32.3671906 85.7709009,30.1693553 85.7540154,28.2877553 L85.7500754,27.8625318 L85.0847859,27.8687435 C83.1485796,27.8862494 79.8840457,28.1889318 79.9037455,30.3743435 C79.9133139,31.4060612 80.7086219,32.4005082 82.2513956,32.3863906 M85.0307523,25.2287435 L85.6960418,25.2225318 L85.6943532,25.0102024 C85.676342,22.9766965 84.3694027,22.2905788 82.7658412,22.3046965 C81.2534614,22.3182494 79.7163162,22.96992 78.4836732,23.8310965 L77.037147,21.0821082 C78.2984953,20.0385318 80.7710984,19.1361318 83.0697805,19.1152376 C87.0930372,19.0785318 89.5031638,21.3029082 89.5380605,25.2180141 L89.6253023,34.8998965 L86.0557034,34.9320847 L86.0438835,33.6270494 C86.038255,32.9894965 86.124934,32.5032847 86.124934,32.5032847 L86.0641461,32.5038494 C85.141071,34.1510965 83.3061778,35.3211671 81.2191275,35.3398024 C78.4363937,35.3652141 76.1208261,33.5649318 76.0954978,30.7425318 C76.0538468,26.0989553 81.6125601,25.2592376 85.0307523,25.2287435" id="Fill-3" fill="#FFFFFF"></path>
                <path d="M93.3638691,13.3159906 L97.1754939,13.2815435 L97.3207094,29.4270494 C97.3359063,31.1268141 97.9145168,31.5469553 98.9124511,31.53792 C99.0638579,31.5362259 99.2754898,31.5345318 99.4871216,31.5023435 L99.5175156,34.8708141 C99.2450958,34.9035671 98.822395,34.9685082 98.3079495,34.9730259 C96.1905052,34.9922259 93.5541126,34.4693082 93.5141502,30.0386259 L93.3638691,13.3159906 Z" id="Fill-5" fill="#FFFFFF"></path>
                <path d="M102.105953,13.2369318 L105.917578,13.2024847 L106.062231,29.3479906 C106.077428,31.0477553 106.656601,31.4678965 107.654535,31.4588612 C107.805942,31.4571671 108.017574,31.4554729 108.229206,31.4232847 L108.2596,34.7917553 C107.98718,34.8245082 107.564479,34.8894494 107.050034,34.8939671 C104.932589,34.9131671 102.296197,34.3902494 102.256234,29.9595671 L102.105953,13.2369318 Z" id="Fill-7" fill="#FFFFFF"></path>
                <path d="M111.688092,22.4985035 L109.691661,22.5165741 L109.664081,19.4513506 L111.751131,19.4327153 L111.711169,15.0014682 L115.462569,14.9675859 L115.501968,19.3988329 L119.011342,19.3666447 L119.038922,22.4318682 L115.529548,22.4634918 L115.584144,28.5035859 C115.607221,31.0526682 117.60703,31.3988329 118.665752,31.3892329 C118.877384,31.3875388 119.058622,31.3858447 119.360872,31.3225976 L119.390704,34.6910682 C119.089016,34.7243859 118.725977,34.7881976 118.212094,34.7927153 C116.064256,34.81248 111.793345,34.2133271 111.746628,29.02368 L111.688092,22.4985035 Z" id="Fill-9" fill="#FFFFFF"></path>
                <path d="M129.679501,31.6235859 C132.190378,31.6009976 134.25998,29.6397741 134.234089,26.7563859 C134.208761,23.9034918 132.103699,21.9496094 129.592822,21.9727624 C127.081945,21.9953506 125.042737,23.9865035 125.068629,26.8393976 C125.09452,29.7227859 127.168624,31.6461741 129.679501,31.6235859 M129.53316,18.6946447 C134.2521,18.6522918 138.063725,21.98688 138.105939,26.7213741 C138.148715,31.4863624 134.397879,34.8587859 129.70877,34.9011388 C125.020223,34.9434918 121.209161,31.6393976 121.166385,26.8744094 C121.123608,22.1399153 124.874445,18.7369976 129.53316,18.6946447" id="Fill-11" fill="#FFFFFF"></path>
                <path d="M141.061411,18.9549741 L144.902867,18.9199624 L144.985606,28.0857035 C145.002492,29.9673035 145.4978,31.2378918 147.403613,31.2203859 C150.186909,31.1955388 151.707169,28.7232565 151.682404,25.96128 L151.618802,18.8595388 L155.430426,18.8250918 L155.56945,34.3031153 L151.878839,34.3364329 L151.862516,32.5158212 C151.85745,31.9392565 151.943566,31.45248 151.943566,31.45248 L151.883341,31.4530447 C151.171335,33.0381741 149.189538,34.7249506 146.558211,34.7492329 C143.230638,34.7791624 141.188616,33.1279624 141.150905,28.9096094 L141.061411,18.9549741 Z" id="Fill-13" fill="#FFFFFF"></path>
                <path d="M167.012655,18.3558776 C169.099705,18.3372424 171.465367,19.01376 172.961987,20.6090541 L171.261615,23.2648659 C170.285069,22.3026071 168.766498,21.6181835 167.253555,21.6317365 C164.410596,21.6577129 162.584146,23.8290071 162.607786,26.4695718 C162.631425,29.0796424 164.497275,31.3085365 167.461247,31.2819953 C169.095203,31.2673129 170.841728,30.4016188 171.981501,29.2682541 L173.487689,31.9861835 C172.049606,33.5470306 169.638353,34.5403482 167.158433,34.5629365 C162.046061,34.6086776 158.74663,31.0267482 158.706105,26.5350776 C158.666705,22.1343247 161.900282,18.4021835 167.012655,18.3558776" id="Fill-15" fill="#FFFFFF"></path>
                <path d="M176.096333,12.5676988 L179.938352,12.5326871 L180.005894,20.0596518 C180.012648,20.8180518 179.927095,21.3652518 179.927095,21.3652518 L179.98732,21.3646871 C180.730283,19.87104 182.651855,18.2141929 185.313576,18.1904753 C188.731768,18.1594165 190.714128,19.9325929 190.750713,24.0295341 L190.840207,33.9841694 L186.998751,34.0191812 L186.916012,24.85344 C186.899126,22.97184 186.403818,21.7012518 184.467611,21.7187576 C181.775497,21.7436047 180.040791,23.9442635 180.067245,26.8880753 L180.131973,34.0812988 L176.289954,34.1157459 L176.096333,12.5676988 Z" id="Fill-17" fill="#FFFFFF"></path>
                <path d="M23.9883018,20.8428424 L37.3982192,34.0563953 C43.4899521,26.3718776 43.4668752,15.2782306 37.0396833,7.51013647 L23.9883018,20.8428424 Z" id="Fill-23" fill="#1EB0CD"></path>
                <path d="M15.4222774,35.9975718 L20.9095086,30.4922541 L26.3967399,35.9975718 L15.4222774,35.9975718 Z M20.8706719,24.0275012 L3.54443957,41.7270776 C13.9419801,50.0728659 28.6267543,49.7809129 38.6145395,41.5119247 L20.8706719,24.0275012 Z" id="Fill-25" fill="#FFFFFF"></path>
                <path d="M34.0639481,4.57750588 C25.7573978,-2.06738824 13.6223372,-1.46597647 6.01597317,6.30437647 C-1.59039087,14.0747294 -1.97087793,26.2582588 4.80077856,34.4713412 L34.0639481,4.57750588 Z" id="Fill-20" fill="#1EB0CD"></path>
            </g>
        </g>
    </g>
</svg>