<svg width="112" height="120" viewBox="0 0 112 120" xmlns="http://www.w3.org/2000/svg">
    <title>
        calltouch_calltracking-128
    </title>
    <g fill-rule="nonzero" fill="none">
        <path d="M81 64c0 13.785-11.215 25-25 25-10.23 0-19.041-6.18-22.906-15h-10.63C26.777 88.44 40.176 99 56 99c19.299 0 35-15.701 35-35 0-13.934-8.186-25.988-20-31.616v11.63C77.068 48.579 81 55.839 81 64zM71 10.049V21.58c17.458 6.192 30 22.865 30 42.42 0 24.813-20.187 45-45 45-21.375 0-39.305-14.985-43.866-35H.908C5.625 100.153 28.487 120 56 120c30.928 0 56-25.072 56-56 0-25.729-17.359-47.392-41-53.951z" fill="#3CB0CB"/>
        <path d="M51 0v8.233C22.459 10.773.002 34.804 0 64h31c0-12.073 8.603-22.174 20-24.497V64a5.001 5.001 0 0 0 10 0V0H51z" fill="#1F282C"/>
    </g>
</svg>
