<svg width="62" height="63" viewBox="0 0 62 63" xmlns="http://www.w3.org/2000/svg">
    <title>
        dispatcher.1.2
    </title>
    <g fill-rule="nonzero" fill="none">
        <path d="M62 60.697l-2.067-8.052c-.413-1.858-1.653-3.303-3.306-4.129l-6.614-3.51c-.413-.206-.826-.206-1.24.207-.413.413-.413.826-.206 1.239l1.446 2.27c.414.826.62 1.652.414 2.684-.207.826-1.034 1.652-1.86 1.859l-4.754 1.858s-.206 0-.206.206L37.2 59.871c-.413.206-.413.826-.413 1.239 0 .413.62.619 1.033.619h22.94c.413 0 .62-.206.827-.413.413 0 .413-.413.413-.62z" fill="#1EB0CD"/>
        <path d="M18.393 55.535l-.206-.206-5.787-1.858c-.827-.206-1.653-1.032-1.86-1.858-.413-.826-.207-1.858.207-2.684l1.446-2.27c.207-.414.207-1.033 0-1.24-.413-.413-.826-.413-1.24-.206l-5.58 2.89c-1.653.826-2.893 2.271-3.306 4.13L0 60.696c0 .206 0 .62.207.826.206.206.413.412.826.412h22.94c.414 0 .827-.206 1.034-.619.206-.413 0-.826-.414-1.239l-6.2-4.542z" fill="#1EB0CD"/>
        <path d="M47.947 51.613l.62-.62c.206-.206 0-.619-.207-.825l-5.167-8.258c-.206-.207-.62-.413-.826-.413-.414 0-.62.206-.827.413L31 59.045 19.427 41.91c-.207-.413-.414-.62-.827-.62s-.62.207-.827.413l-5.166 8.258c-.207.413-.207.62-.207 1.033.207.206.413.619.62.619l5.993 2.064 11.16 8.258s.207 0 .207.207h.413c.207 0 .62-.207.827-.413l10.953-8.052 5.374-2.064z" fill="#1F282C"/>
        <path d="M25.833 22.71h-2.066c-.62 0-1.034.413-1.034 1.032 0 .62.414 1.032 1.034 1.032h2.066c.62 0 1.034-.413 1.034-1.032 0-.62-.414-1.032-1.034-1.032z" fill="#1F282C"/>
        <path d="M36.167 24.774h2.066c.62 0 1.034-.413 1.034-1.032 0-.62-.414-1.032-1.034-1.032h-2.066c-.62 0-1.034.413-1.034 1.032 0 .62.414 1.032 1.034 1.032z" fill="#1F282C"/>
        <path d="M21.493 39.432s.207 0 0 0c.207 0 .207 0 0 0h.207c2.687 2.478 5.787 3.923 8.887 3.923 3.306 0 6.613-1.445 9.506-3.923 1.86-.413 10.54-2.064 13.227-4.542a.997.997 0 0 0 0-1.445c-1.447-1.445-2.893-6.193-3.513-11.768-.207-1.651-.207-3.096-.207-4.129C49.6 8.052 40.92 0 30.793 0 20.667 0 12.4 7.845 12.4 17.548v2.271c0 .413 0 1.033-.207 1.446-.62 5.78-2.066 10.529-3.513 11.974a.997.997 0 0 0 0 1.445c2.687 2.89 11.78 4.542 12.813 4.748zm.62-2.684c-1.653-2.064-3.1-4.748-3.72-7.845 0-.413-.206-.62-.62-.62h-1.24c-.62 0-1.653-1.65-1.653-4.128 0-.62-.207-1.239-.413-1.652v-.413c.206 0 .413-.206.62-.413 3.1-1.445 8.06-4.542 9.3-9.703 3.926 3.923 14.26 9.497 22.32 10.53h.62c0 .412.206 1.031.206 1.444 0 2.065-.62 3.51-1.033 3.923-.207 0-.413 0-.413.206-.207-.206-.62-.206-1.034 0-.206.207-.62.413-.62.62-.206 1.238-.826 2.27-1.24 3.51-2.48 1.445-6.406 2.064-8.06 2.064h-.413c-.413-.62-1.447-1.032-2.687-1.032-1.86 0-3.1.826-3.1 2.064 0 1.239 1.24 2.065 3.1 2.065 1.24 0 2.274-.413 2.687-1.033h.413c1.24 0 3.72-.206 6.2-1.032-.62.826-1.446 1.858-2.273 2.478-2.48 2.27-5.58 3.716-8.267 3.716-3.306-.207-6.406-1.858-8.68-4.749z" fill="#1F282C"/>
    </g>
</svg>
