<svg width="64" height="64" viewBox="0 0 64 64" xmlns="http://www.w3.org/2000/svg">
    <title>
        app settings.2
    </title>
    <g fill="none" fill-rule="evenodd">
        <path d="M33.067 55.467H6.35a4.221 4.221 0 0 1-4.218-4.218V10.667h53.334v22.4a1.067 1.067 0 0 0 2.133 0V6.35A6.356 6.356 0 0 0 51.251 0h-44.9A6.357 6.357 0 0 0 0 6.35v44.9c0 3.502 2.85 6.35 6.35 6.35h26.717a1.067 1.067 0 0 0 0-2.133zm-12.8-51.2a1.067 1.067 0 1 1-.001 2.134 1.067 1.067 0 0 1 0-2.134zm-6.4 0a1.067 1.067 0 1 1-.001 2.134 1.067 1.067 0 0 1 0-2.134zm-6.4 0A1.067 1.067 0 1 1 7.466 6.4a1.067 1.067 0 0 1 0-2.134z" fill="#1EB0CD" fill-rule="nonzero"/>
        <path d="M63.473 45.062c.35 1.325.527 2.659.527 3.966 0 1.707-.288 3.411-.858 5.065a1.06 1.06 0 0 1-1.211.7 2.118 2.118 0 0 0-2.234 1.045c-.44.783-.38 1.751.154 2.47.309.418.273.994-.084 1.372-2.077 2.185-4.704 3.67-7.592 4.294a1.06 1.06 0 0 1-1.193-.59c-.723-1.556-3.106-1.556-3.829 0a1.066 1.066 0 0 1-1.195.59c-2.89-.625-5.514-2.112-7.592-4.294a1.07 1.07 0 0 1-.083-1.372 2.273 2.273 0 0 0 .153-2.47 2.11 2.11 0 0 0-2.233-1.045 1.064 1.064 0 0 1-1.212-.7 15.522 15.522 0 0 1-.858-5.065c0-1.307.177-2.64.527-3.966a1.066 1.066 0 0 1 1.342-.75c.928.279 1.95-.14 2.436-1.001a2.253 2.253 0 0 0-.49-2.818 1.07 1.07 0 0 1-.12-1.504c2.07-2.428 4.777-4.096 7.827-4.828.297-.066.61-.01.86.162.25.175.412.45.448.753.13 1.112 1.033 1.95 2.104 1.95 1.07 0 1.973-.838 2.103-1.95.036-.303.199-.578.448-.753.25-.173.568-.228.86-.162 3.048.732 5.756 2.4 7.827 4.828a1.066 1.066 0 0 1-.12 1.504 2.255 2.255 0 0 0-.49 2.818c.486.864 1.515 1.282 2.436 1a1.072 1.072 0 0 1 1.342.75zm-14.406 8.271a4.271 4.271 0 0 0 4.266-4.266 4.271 4.271 0 0 0-4.266-4.267 4.271 4.271 0 0 0-4.267 4.267 4.271 4.271 0 0 0 4.267 4.266z" fill="#1F282C"/>
    </g>
</svg>
