<?xml version="1.0" encoding="UTF-8"?>
<svg width="28px" height="32px" viewBox="0 0 28 32" version="1.1" xmlns="http://www.w3.org/2000/svg" xmlns:xlink="http://www.w3.org/1999/xlink">
    <!-- Generator: Sketch 48.2 (47327) - http://www.bohemiancoding.com/sketch -->
    <title>calltouch_antifraud-32</title>
    <desc>Created with Sketch.</desc>
    <defs></defs>
    <g id="calltouch_calltracking+product_dropdown" stroke="none" stroke-width="1" fill="none" fill-rule="evenodd" transform="translate(-377.000000, -236.000000)">
        <g id="product_menu_dropdow" transform="translate(112.000000, 140.000000)" fill-rule="nonzero">
            <g id="calltouch_antifraud-32" transform="translate(265.000000, 96.000000)">
                <path d="M14,7 C6.268,7 0,13.397 0,21.289 C0,24.014 0.749,26.561 2.046,28.728 L14.008,32 L25.951,28.733 C27.25,26.565 28,24.017 28,21.289 C28,13.397 21.732,7 14,7 Z M5,26 L5,21.855 L12,26 L5,26 Z M23,26 L15.823,26 L23,21.855 L23,26 Z" id="Shape" fill="#1EB0CD"></path>
                <polygon id="Shape" fill="#FFFFFF" points="0 0 5.889 5.889 0 11.777"></polygon>
                <polygon id="Shape" fill="#FFFFFF" points="28 0 22.169 5.831 28 11.661"></polygon>
            </g>
        </g>
    </g>
</svg>