<?xml version="1.0" encoding="UTF-8"?>
<svg width="31px" height="31px" viewBox="0 0 31 31" version="1.1" xmlns="http://www.w3.org/2000/svg" xmlns:xlink="http://www.w3.org/1999/xlink">
    <!-- Generator: Sketch 48.2 (47327) - http://www.bohemiancoding.com/sketch -->
    <title>calltouch_optimizer-32</title>
    <desc>Created with Sketch.</desc>
    <defs></defs>
    <g id="calltouch_calltracking+product_dropdown" stroke="none" stroke-width="1" fill="none" fill-rule="evenodd" transform="translate(-137.000000, -275.000000)">
        <g id="product_menu_dropdow" transform="translate(112.000000, 140.000000)" fill-rule="nonzero">
            <g id="calltouch_optimizer-32" transform="translate(25.000000, 135.000000)">
                <path d="M14,7 L14,0 L17,0 L17,7 L14,7 Z M23,7 L23,3 L20,3 L20,7 L23,7 Z M11,7 L11,4.098 L8,4.098 L8,7 L11,7 Z" id="Shape" fill="#FFFFFF"></path>
                <rect id="Rectangle-path" fill="#FFFFFF" x="0" y="13.098" width="3" height="8.9"></rect>
                <rect id="Rectangle-path" fill="#FFFFFF" x="28" y="13.098" width="3" height="8.9"></rect>
                <path d="M5,10 L5,25.897 C7.447,29.003 11.239,31 15.5,31 C19.761,31 23.553,29.003 26,25.897 L26,10 L5,10 Z M10.5,20 C9.119,20 8,18.882 8,17.5 C8,16.12 9.119,15 10.5,15 C11.881,15 13,16.12 13,17.5 C13,18.882 11.881,20 10.5,20 Z M18,26 L13,26 L13,23 L18,23 L18,26 Z M22,19 L19,19 L19,16 L22,16 L22,19 Z" id="Shape" fill="#1EB0CD"></path>
            </g>
        </g>
    </g>
</svg>