<?xml version="1.0" encoding="UTF-8"?>
<svg width="28px" height="30px" viewBox="0 0 28 30" version="1.1" xmlns="http://www.w3.org/2000/svg" xmlns:xlink="http://www.w3.org/1999/xlink">
    <!-- Generator: Sketch 48.2 (47327) - http://www.bohemiancoding.com/sketch -->
    <title>calltouch_platform-32</title>
    <desc>Created with Sketch.</desc>
    <defs></defs>
    <g id="calltouch_calltracking+product_dropdown" stroke="none" stroke-width="1" fill="none" fill-rule="evenodd" transform="translate(-138.000000, -194.000000)">
        <g id="product_menu_dropdow" transform="translate(112.000000, 140.000000)" fill-rule="nonzero">
            <g id="calltouch_platform-32" transform="translate(26.000000, 54.000000)">
                <path d="M3.797,3.676 L14,13.879 L24.203,3.676 C21.434,1.381 17.878,0 14,0 C10.122,0 6.566,1.381 3.797,3.676 Z" id="Shape" fill="#FFFFFF"></path>
                <path d="M24.901,24.779 C26.543,22.744 27.627,20.241 27.919,17.5 L17.622,17.5 L24.901,24.779 Z M27.919,14.5 C27.627,11.759 26.543,9.256 24.901,7.22 L17.621,14.5 L27.919,14.5 Z M0,16 C0,23.732 6.268,30 14,30 C17.326,30 20.378,28.838 22.78,26.901 L3.099,7.22 C1.162,9.621 0,12.674 0,16 Z" id="Shape" fill="#1EB0CD"></path>
            </g>
        </g>
    </g>
</svg>