<?xml version="1.0" encoding="UTF-8"?>
<svg width="28px" height="32px" viewBox="0 0 28 32" version="1.1" xmlns="http://www.w3.org/2000/svg" xmlns:xlink="http://www.w3.org/1999/xlink">
    <!-- Generator: Sketch 48.2 (47327) - http://www.bohemiancoding.com/sketch -->
    <title>calltouch_predict-32</title>
    <desc>Created with Sketch.</desc>
    <defs></defs>
    <g id="calltouch_calltracking+product_dropdown" stroke="none" stroke-width="1" fill="none" fill-rule="evenodd" transform="translate(-377.000000, -194.000000)">
        <g id="product_menu_dropdow" transform="translate(112.000000, 140.000000)" fill-rule="nonzero">
            <g id="calltouch_predict-32" transform="translate(265.000000, 54.000000)">
                <path d="M24.002,32 C24.002,29.791 22.211,28 20.002,28 C20.001,28 20,28 20,28 L8,28 C7.996,28 7.992,28 7.987,28 C5.778,28 3.987,29.791 3.987,32 L24.002,32 Z" id="Shape" fill="#FFFFFF"></path>
                <path d="M14,0 C6.268,0 0,6.269 0,14 C0,18.458 2.093,22.418 5.34,24.981 L22.66,24.981 C25.907,22.418 28,18.458 28,14 C28,6.269 21.732,0 14,0 Z M9.598,18.679 L8.338,21.683 L7.078,18.679 L4.074,17.419 L7.078,16.159 L8.338,13.155 L9.598,16.159 L12.602,17.419 L9.598,18.679 Z M19.996,12.015 L18.311,16.033 L16.627,12.015 L12.61,10.331 L16.627,8.645 L18.311,4.628 L19.996,8.645 L24.013,10.331 L19.996,12.015 Z" id="Shape" fill="#1EB0CD"></path>
            </g>
        </g>
    </g>
</svg>