<?xml version="1.0" encoding="UTF-8"?>
<svg width="64px" height="64px" viewBox="0 0 64 64" version="1.1" xmlns="http://www.w3.org/2000/svg" xmlns:xlink="http://www.w3.org/1999/xlink">
    <!-- Generator: Sketch 48.2 (47327) - http://www.bohemiancoding.com/sketch -->
    <title>block chart.1.2</title>
    <desc>Created with Sketch.</desc>
    <defs></defs>
    <g id="calltouch_calltracking" stroke="none" stroke-width="1" fill="none" fill-rule="evenodd" transform="translate(-373.000000, -556.000000)">
        <g id="page" transform="translate(-223.000000, 227.000000)" fill-rule="nonzero">
            <g id="info" transform="translate(587.000000, 0.000000)">
                <g id="block-chart.1.2" transform="translate(9.000000, 329.000000)">
                    <path d="M62.9333333,57.6 L6.4,57.6 L6.4,1.06666667 C6.4,0.426666667 5.97333333,0 5.33333333,0 C4.69333333,0 4.26666667,0.426666667 4.26666667,1.06666667 L4.26666667,57.6 L1.06666667,57.6 C0.426666667,57.6 0,58.0266667 0,58.6666667 C0,59.3066667 0.426666667,59.7333333 1.06666667,59.7333333 L4.26666667,59.7333333 L4.26666667,62.9333333 C4.26666667,63.5733333 4.69333333,64 5.33333333,64 C5.97333333,64 6.4,63.5733333 6.4,62.9333333 L6.4,59.7333333 L62.9333333,59.7333333 C63.5733333,59.7333333 64,59.3066667 64,58.6666667 C64,58.0266667 63.5733333,57.6 62.9333333,57.6 Z" id="Shape" fill="#1F282C"></path>
                    <path d="M13.8666667,51.2 L22.4,51.2 C23.04,51.2 23.4666667,50.7733333 23.4666667,50.1333333 L23.4666667,24.5333333 C23.4666667,23.8933333 23.04,23.4666667 22.4,23.4666667 L13.8666667,23.4666667 C13.2266667,23.4666667 12.8,23.8933333 12.8,24.5333333 L12.8,50.1333333 C12.8,50.7733333 13.2266667,51.2 13.8666667,51.2 Z" id="Shape" fill="#1EB0CD"></path>
                    <path d="M48,51.2 L56.5333333,51.2 C57.1733333,51.2 57.6,50.7733333 57.6,50.1333333 L57.6,16 C57.6,15.36 57.1733333,14.9333333 56.5333333,14.9333333 L48,14.9333333 C47.36,14.9333333 46.9333333,15.36 46.9333333,16 L46.9333333,50.1333333 C46.9333333,50.7733333 47.36,51.2 48,51.2 Z" id="Shape" fill="#1EB0CD"></path>
                    <path d="M30.9333333,51.2 L39.4666667,51.2 C40.1066667,51.2 40.5333333,50.7733333 40.5333333,50.1333333 L40.5333333,3.2 C40.5333333,2.56 40.1066667,2.13333333 39.4666667,2.13333333 L30.9333333,2.13333333 C30.2933333,2.13333333 29.8666667,2.56 29.8666667,3.2 L29.8666667,50.1333333 C29.8666667,50.7733333 30.2933333,51.2 30.9333333,51.2 Z" id="Shape" fill="#1EB0CD"></path>
                </g>
            </g>
        </g>
    </g>
</svg>