<?xml version="1.0" encoding="UTF-8"?>
<svg width="62px" height="63px" viewBox="0 0 62 63" version="1.1" xmlns="http://www.w3.org/2000/svg" xmlns:xlink="http://www.w3.org/1999/xlink">
    <!-- Generator: Sketch 48.2 (47327) - http://www.bohemiancoding.com/sketch -->
    <title>dispatcher.1.2</title>
    <desc>Created with Sketch.</desc>
    <defs></defs>
    <g id="calltouch_calltracking" stroke="none" stroke-width="1" fill="none" fill-rule="evenodd" transform="translate(-978.000000, -557.000000)">
        <g id="page" transform="translate(-223.000000, 227.000000)" fill-rule="nonzero">
            <g id="info" transform="translate(587.000000, 0.000000)">
                <g id="dispatcher.1.2" transform="translate(614.000000, 330.000000)">
                    <path d="M62,60.6967742 L59.9333333,52.6451613 C59.52,50.7870968 58.28,49.3419355 56.6266667,48.516129 L50.0133333,45.0064516 C49.6,44.8 49.1866667,44.8 48.7733333,45.2129032 C48.36,45.6258065 48.36,46.0387097 48.5666667,46.4516129 L50.0133333,48.7225806 C50.4266667,49.5483871 50.6333333,50.3741935 50.4266667,51.4064516 C50.22,52.2322581 49.3933333,53.0580645 48.5666667,53.2645161 L43.8133333,55.1225806 C43.8133333,55.1225806 43.6066667,55.1225806 43.6066667,55.3290323 L37.2,59.8709677 C36.7866667,60.0774194 36.7866667,60.6967742 36.7866667,61.1096774 C36.7866667,61.5225806 37.4066667,61.7290323 37.82,61.7290323 L60.76,61.7290323 C61.1733333,61.7290323 61.38,61.5225806 61.5866667,61.316129 C62,61.316129 62,60.9032258 62,60.6967742 Z" id="Shape" fill="#1EB0CD"></path>
                    <path d="M18.3933333,55.5354839 C18.3933333,55.5354839 18.1866667,55.3290323 18.1866667,55.3290323 L12.4,53.4709677 C11.5733333,53.2645161 10.7466667,52.4387097 10.54,51.6129032 C10.1266667,50.7870968 10.3333333,49.7548387 10.7466667,48.9290323 L12.1933333,46.6580645 C12.4,46.2451613 12.4,45.6258065 12.1933333,45.4193548 C11.78,45.0064516 11.3666667,45.0064516 10.9533333,45.2129032 L5.37333333,48.1032258 C3.72,48.9290323 2.48,50.3741935 2.06666667,52.2322581 L0,60.6967742 C0,60.9032258 0,61.316129 0.206666667,61.5225806 C0.413333333,61.7290323 0.62,61.9354839 1.03333333,61.9354839 L23.9733333,61.9354839 C24.3866667,61.9354839 24.8,61.7290323 25.0066667,61.316129 C25.2133333,60.9032258 25.0066667,60.4903226 24.5933333,60.0774194 L18.3933333,55.5354839 Z" id="Shape" fill="#1EB0CD"></path>
                    <path d="M47.9466667,51.6129032 C48.1533333,51.4064516 48.36,51.2 48.5666667,50.9935484 C48.7733333,50.7870968 48.5666667,50.3741935 48.36,50.1677419 L43.1933333,41.9096774 C42.9866667,41.7032258 42.5733333,41.4967742 42.3666667,41.4967742 C42.3666667,41.4967742 42.3666667,41.4967742 42.3666667,41.4967742 C41.9533333,41.4967742 41.7466667,41.7032258 41.54,41.9096774 L31,59.0451613 L19.4266667,41.9096774 C19.22,41.4967742 19.0133333,41.2903226 18.6,41.2903226 C18.1866667,41.2903226 17.98,41.4967742 17.7733333,41.7032258 L12.6066667,49.9612903 C12.4,50.3741935 12.4,50.5806452 12.4,50.9935484 C12.6066667,51.2 12.8133333,51.6129032 13.02,51.6129032 L19.0133333,53.6774194 L30.1733333,61.9354839 C30.1733333,61.9354839 30.38,61.9354839 30.38,62.1419355 C30.5866667,62.1419355 30.5866667,62.1419355 30.7933333,62.1419355 C30.7933333,62.1419355 30.7933333,62.1419355 30.7933333,62.1419355 C31,62.1419355 31.4133333,61.9354839 31.62,61.7290323 L42.5733333,53.6774194 L47.9466667,51.6129032 Z" id="Shape" fill="#1F282C"></path>
                    <path d="M25.8333333,22.7096774 L23.7666667,22.7096774 C23.1466667,22.7096774 22.7333333,23.1225806 22.7333333,23.7419355 C22.7333333,24.3612903 23.1466667,24.7741935 23.7666667,24.7741935 L25.8333333,24.7741935 C26.4533333,24.7741935 26.8666667,24.3612903 26.8666667,23.7419355 C26.8666667,23.1225806 26.4533333,22.7096774 25.8333333,22.7096774 Z" id="Shape" fill="#1F282C"></path>
                    <path d="M36.1666667,24.7741935 L38.2333333,24.7741935 C38.8533333,24.7741935 39.2666667,24.3612903 39.2666667,23.7419355 C39.2666667,23.1225806 38.8533333,22.7096774 38.2333333,22.7096774 L36.1666667,22.7096774 C35.5466667,22.7096774 35.1333333,23.1225806 35.1333333,23.7419355 C35.1333333,24.3612903 35.5466667,24.7741935 36.1666667,24.7741935 Z" id="Shape" fill="#1F282C"></path>
                    <path d="M21.4933333,39.4322581 C21.4933333,39.4322581 21.7,39.4322581 21.4933333,39.4322581 C21.7,39.4322581 21.7,39.4322581 21.4933333,39.4322581 C21.7,39.4322581 21.7,39.4322581 21.7,39.4322581 C24.3866667,41.9096774 27.4866667,43.3548387 30.5866667,43.3548387 C33.8933333,43.3548387 37.2,41.9096774 40.0933333,39.4322581 C41.9533333,39.0193548 50.6333333,37.3677419 53.32,34.8903226 C53.7333333,34.4774194 53.7333333,33.8580645 53.32,33.4451613 C51.8733333,32 50.4266667,27.2516129 49.8066667,21.6774194 C49.6,20.0258065 49.6,18.5806452 49.6,17.5483871 C49.6,8.0516129 40.92,0 30.7933333,0 C20.6666667,0 12.4,7.84516129 12.4,17.5483871 C12.4,17.9612903 12.4,18.3741935 12.4,18.7870968 C12.4,19.2 12.4,19.4064516 12.4,19.8193548 C12.4,20.2322581 12.4,20.8516129 12.1933333,21.2645161 C11.5733333,27.0451613 10.1266667,31.7935484 8.68,33.2387097 C8.26666667,33.6516129 8.26666667,34.2709677 8.68,34.683871 C11.3666667,37.5741935 20.46,39.2258065 21.4933333,39.4322581 Z M22.1133333,36.7483871 C20.46,34.683871 19.0133333,32 18.3933333,28.9032258 C18.3933333,28.4903226 18.1866667,28.283871 17.7733333,28.283871 C17.36,28.283871 17.1533333,28.283871 16.74,28.283871 C16.5333333,28.283871 16.5333333,28.283871 16.5333333,28.283871 C15.9133333,28.283871 14.88,26.6322581 14.88,24.1548387 C14.88,23.5354839 14.6733333,22.916129 14.4666667,22.5032258 C14.4666667,22.2967742 14.4666667,22.0903226 14.4666667,22.0903226 C14.4666667,22.0903226 14.4666667,22.0903226 14.4666667,22.0903226 C14.6733333,22.0903226 14.88,21.883871 15.0866667,21.6774194 C18.1866667,20.2322581 23.1466667,17.1354839 24.3866667,11.9741935 C28.3133333,15.8967742 38.6466667,21.4709677 46.7066667,22.5032258 C46.9133333,22.5032258 47.12,22.5032258 47.3266667,22.5032258 C47.3266667,22.916129 47.5333333,23.5354839 47.5333333,23.9483871 C47.5333333,26.0129032 46.9133333,27.4580645 46.5,27.8709677 C46.5,27.8709677 46.5,27.8709677 46.5,27.8709677 C46.2933333,27.8709677 46.0866667,27.8709677 46.0866667,28.0774194 C46.0866667,28.0774194 46.0866667,28.0774194 46.0866667,28.0774194 C45.88,27.8709677 45.4666667,27.8709677 45.0533333,28.0774194 C44.8466667,28.283871 44.4333333,28.4903226 44.4333333,28.6967742 C44.2266667,29.9354839 43.6066667,30.9677419 43.1933333,32.2064516 C40.7133333,33.6516129 36.7866667,34.2709677 35.1333333,34.2709677 C34.9266667,34.2709677 34.9266667,34.2709677 34.72,34.2709677 C34.3066667,33.6516129 33.2733333,33.2387097 32.0333333,33.2387097 C30.1733333,33.2387097 28.9333333,34.0645161 28.9333333,35.3032258 C28.9333333,36.5419355 30.1733333,37.3677419 32.0333333,37.3677419 C33.2733333,37.3677419 34.3066667,36.9548387 34.72,36.3354839 C34.9266667,36.3354839 34.9266667,36.3354839 35.1333333,36.3354839 C36.3733333,36.3354839 38.8533333,36.1290323 41.3333333,35.3032258 C40.7133333,36.1290323 39.8866667,37.1612903 39.06,37.7806452 C36.58,40.0516129 33.48,41.4967742 30.7933333,41.4967742 C27.4866667,41.2903226 24.3866667,39.6387097 22.1133333,36.7483871 Z" id="Shape" fill="#1F282C"></path>
                </g>
            </g>
        </g>
    </g>
</svg>