<?xml version="1.0" encoding="UTF-8"?>
<svg width="64px" height="64px" viewBox="0 0 64 64" version="1.1" xmlns="http://www.w3.org/2000/svg" xmlns:xlink="http://www.w3.org/1999/xlink">
    <!-- Generator: Sketch 48.2 (47327) - http://www.bohemiancoding.com/sketch -->
    <title>app settings.2</title>
    <desc>Created with Sketch.</desc>
    <defs></defs>
    <g id="calltouch_calltracking" stroke="none" stroke-width="1" fill="none" fill-rule="evenodd" transform="translate(-676.000000, -556.000000)">
        <g id="page" transform="translate(-223.000000, 227.000000)">
            <g id="info" transform="translate(587.000000, 0.000000)">
                <g id="app-settings.2" transform="translate(312.000000, 329.000000)">
                    <path d="M33.0666667,55.4666667 L6.35093333,55.4666667 C4.02346667,55.4666667 2.13333333,53.5744 2.13333333,51.2490667 L2.13333333,10.6666667 L55.4666667,10.6666667 L55.4666667,33.0666667 C55.4666667,33.6554667 55.9445333,34.1333333 56.5333333,34.1333333 C57.1221333,34.1333333 57.6,33.6554667 57.6,33.0666667 L57.6,6.35093333 C57.6,2.848 54.752,0 51.2512,0 L6.35093333,0 C2.848,0 0,2.848 0,6.35093333 L0,51.2490667 C0,54.752 2.85013333,57.6 6.35093333,57.6 L33.0666667,57.6 C33.6554667,57.6 34.1333333,57.1221333 34.1333333,56.5333333 C34.1333333,55.9445333 33.6554667,55.4666667 33.0666667,55.4666667 Z M20.2666667,4.26666667 C20.8554667,4.26666667 21.3333333,4.74453333 21.3333333,5.33333333 C21.3333333,5.92213333 20.8554667,6.4 20.2666667,6.4 C19.6778667,6.4 19.2,5.92213333 19.2,5.33333333 C19.2,4.74453333 19.6778667,4.26666667 20.2666667,4.26666667 Z M13.8666667,4.26666667 C14.4554667,4.26666667 14.9333333,4.74453333 14.9333333,5.33333333 C14.9333333,5.92213333 14.4554667,6.4 13.8666667,6.4 C13.2778667,6.4 12.8,5.92213333 12.8,5.33333333 C12.8,4.74453333 13.2778667,4.26666667 13.8666667,4.26666667 Z M7.46666667,4.26666667 C8.05546667,4.26666667 8.53333333,4.74453333 8.53333333,5.33333333 C8.53333333,5.92213333 8.05546667,6.4 7.46666667,6.4 C6.87786667,6.4 6.4,5.92213333 6.4,5.33333333 C6.4,4.74453333 6.87786667,4.26666667 7.46666667,4.26666667 Z" id="Shape" fill="#1EB0CD" fill-rule="nonzero"></path>
                    <path d="M63.4730667,45.0624 C63.8229333,46.3872 64,47.7205333 64,49.0282667 C64,50.7349333 63.712,52.4394667 63.1424,54.0928 C62.9696,54.5962667 62.4469333,54.9034667 61.9306667,54.7925333 C61.0368,54.6304 60.1472,55.0421333 59.6970667,55.8378667 C59.2576,56.6208 59.3173333,57.5893333 59.8506667,58.3082667 C60.16,58.7264 60.1237333,59.3024 59.7674667,59.68 C57.6896,61.8645333 55.0634667,63.3493333 52.1749333,63.9744 C51.68,64.0810667 51.1914667,63.8336 50.9824,63.3834667 C50.2592,61.8282667 47.8762667,61.8282667 47.1530667,63.3834667 C46.976,63.7653333 46.5941333,64 46.1866667,64 C46.112,64 46.0373333,63.9914667 45.9584,63.9744 C43.0677333,63.3493333 40.4437333,61.8624 38.3658667,59.68 C38.0096,59.3024 37.9733333,58.7242667 38.2826667,58.3082667 C38.816,57.5893333 38.8778667,56.6208 38.4362667,55.8378667 C37.9882667,55.0421333 37.1072,54.6304 36.2026667,54.7925333 C35.68,54.8970667 35.1637333,54.5941333 34.9909333,54.0928 C34.4213333,52.4394667 34.1333333,50.7349333 34.1333333,49.0282667 C34.1333333,47.7205333 34.3104,46.3872 34.6602667,45.0624 C34.7349333,44.7808 34.9184,44.5418667 35.1722667,44.4010667 C35.424,44.2624 35.7248,44.2261333 36.0021333,44.3114667 C36.9301333,44.5909333 37.952,44.1728 38.4384,43.3109333 C38.9696,42.3722667 38.7605333,41.1861333 37.9477333,40.4928 C37.7322667,40.3093333 37.6,40.0469333 37.5765333,39.7653333 C37.5552,39.4816 37.6448,39.2042667 37.8282667,38.9888 C39.8976,36.5610667 42.6048,34.8928 45.6554667,34.1610667 C45.952,34.0949333 46.2656,34.1504 46.5152,34.3232 C46.7648,34.4981333 46.9269333,34.7733333 46.9632,35.0762667 C47.0933333,36.1877333 47.9957333,37.0261333 49.0666667,37.0261333 C50.1376,37.0261333 51.04,36.1877333 51.1701333,35.0762667 C51.2064,34.7733333 51.3685333,34.4981333 51.6181333,34.3232 C51.8677333,34.1504 52.1856,34.0949333 52.4778667,34.1610667 C55.5264,34.8928 58.2336,36.5610667 60.3050667,38.9888 C60.4885333,39.2021333 60.5781333,39.4816 60.5568,39.7653333 C60.5354667,40.0469333 60.4010667,40.3093333 60.1856,40.4928 C59.3728,41.1861333 59.1658667,42.3722667 59.6949333,43.3109333 C60.1813333,44.1749333 61.2096,44.5930667 62.1312,44.3114667 C62.4085333,44.224 62.7072,44.2581333 62.9610667,44.4010667 C63.2149333,44.544 63.3984,44.7808 63.4730667,45.0624 Z M49.0666667,53.3333333 C51.4197333,53.3333333 53.3333333,51.4197333 53.3333333,49.0666667 C53.3333333,46.7136 51.4197333,44.8 49.0666667,44.8 C46.7136,44.8 44.8,46.7136 44.8,49.0666667 C44.8,51.4197333 46.7136,53.3333333 49.0666667,53.3333333 Z" id="Combined-Shape" fill="#1F282C"></path>
                </g>
            </g>
        </g>
    </g>
</svg>