<?xml version="1.0" encoding="UTF-8"?><!DOCTYPE svg PUBLIC "-//W3C//DTD SVG 1.1//EN" "http://www.w3.org/Graphics/SVG/1.1/DTD/svg11.dtd"><svg xmlns="http://www.w3.org/2000/svg"><symbol id="icon-albato" viewBox="0 0 79 18">
    <title>
        albato_logo_green
    </title>
    <g fill-rule="evenodd">
        <path d="M9.82 11.763c0-.848-.303-1.669-.908-2.27a2.984 2.984 0 0 0-2.173-.93c-.826 0-1.596.328-2.2.93a3.293 3.293 0 0 0-.909 2.27c0 .848.33 1.642.908 2.27.605.603 1.375.93 2.2.93.826 0 1.596-.327 2.174-.93a3.22 3.22 0 0 0 .907-2.27zm3.465-5.881v11.79H10.37v-1.15A6.293 6.293 0 0 1 6.299 18C2.806 18 0 15.21 0 11.763 0 8.29 2.806 5.526 6.299 5.526c1.54 0 2.97.547 4.07 1.478l.276-1.122h2.64z"/>
        <path d="M16.211 17.684h3.48V0h-3.48z"/>
        <path d="M33.31 11.717c0-.851-.33-1.647-.906-2.277a2.967 2.967 0 0 0-2.168-.934c-.823 0-1.618.33-2.194.934a3.364 3.364 0 0 0-.906 2.277c0 .85.33 1.673.906 2.277a3.03 3.03 0 0 0 2.194.933c.823 0 1.592-.33 2.168-.933a3.313 3.313 0 0 0 .905-2.277zm-7.024-4.5a6.294 6.294 0 0 1 4.39-1.784c3.456 0 6.254 2.826 6.254 6.284 0 3.485-2.798 6.283-6.255 6.283-1.7 0-3.264-.686-4.389-1.783v1.454h-3.511V0h3.511v7.217z"/>
        <path d="M48.331 11.763c0-.848-.303-1.669-.908-2.27a2.984 2.984 0 0 0-2.173-.93c-.825 0-1.595.328-2.2.93a3.293 3.293 0 0 0-.908 2.27c0 .848.33 1.642.908 2.27.605.603 1.375.93 2.2.93.825 0 1.596-.327 2.173-.93a3.22 3.22 0 0 0 .908-2.27zm3.466-5.881v11.79H48.88v-1.15A6.293 6.293 0 0 1 44.811 18c-3.494 0-6.3-2.79-6.3-6.237 0-3.474 2.806-6.237 6.3-6.237 1.54 0 2.97.547 4.07 1.478l.275-1.122h2.64z"/>
        <path d="M64.529 5.842v3.215h-3.656v8.627h-3.481V9.057h-3.381V5.842z"/>
        <path d="M75.532 11.736a3.2 3.2 0 0 0-.88-2.243c-.606-.63-1.348-.958-2.202-.958-.798 0-1.596.328-2.146.958-.633.601-.936 1.422-.936 2.27 0 .876.303 1.669.936 2.298.55.602 1.348.93 2.146.93.854 0 1.596-.328 2.202-.93.578-.63.88-1.45.88-2.325m3.468.027C79 15.237 76.083 18 72.423 18c-3.633 0-6.55-2.763-6.55-6.237 0-3.447 2.917-6.237 6.55-6.237 3.66 0 6.577 2.79 6.577 6.237"/>
        <path d="M54.011 3.237h10.518V0H54.01z"/>
    </g>
</symbol><symbol id="icon-arrow-down" viewBox="0 0 10 6">
    <title>
        Shape Copy 2
    </title>
    <path d="M5 6a.728.728 0 0 1-.527-.228L0 1.1 1.054 0 5 4.12 8.946 0 10 1.1 5.527 5.773A.728.728 0 0 1 5 6z" fill-rule="evenodd"/>
</symbol><symbol id="icon-facebook" viewBox="0 0 48 48">
    <title>
        facebook
    </title>
    <path d="M24.003 0C10.747 0 0 10.747 0 24.003 0 37.253 10.747 48 24.003 48 37.253 48 48 37.253 48 24.003 48 10.747 37.253 0 24.003 0zM35.68 34.15c0 .707-.348 1.46-1.05 1.46h-5.904v-8.85h3.003l.455-3.793h-3.458v-2.264c0-1.011.272-1.529 1.726-1.529h2.067v-3.307c-.632-.044-1.612-.139-2.895-.139-2.668 0-4.69 1.631-4.69 4.628v2.611h-3.161v3.793h3.16v8.85H13.983c-.708 0-1.062-.753-1.062-1.46V13.502c0-.708.354-1.283 1.062-1.283H34.63c.701 0 1.05.575 1.05 1.283v20.646z" fill-rule="evenodd"/>
</symbol><symbol id="icon-login" viewBox="0 0 16 16">
    <title>
        Shape
    </title>
    <path d="M8 0a8 8 0 1 0 0 16A8 8 0 0 0 8 0zm1.102 8.52L9.6 12H6.4l.498-3.48A2.39 2.39 0 0 1 5.6 6.4a2.4 2.4 0 0 1 4.8 0c0 .926-.53 1.72-1.298 2.12z" fill-rule="nonzero"/>
</symbol><symbol id="icon-ok" viewBox="0 0 48 48">
    <title>
        ok
    </title>
    <path d="M24.003 0C37.253 0 48 10.747 48 24.003 48 37.253 37.253 48 24.003 48 10.747 48 0 37.253 0 24.003 0 10.747 10.747 0 24.003 0zm3.243 30.8a15.306 15.306 0 0 0 4.656-1.863c1.097-.668 1.428-2.066.737-3.129-.692-1.062-2.14-1.383-3.24-.715-3.285 1.996-7.513 1.992-10.797 0-1.1-.668-2.549-.347-3.24.715-.692 1.059-.36 2.46.736 3.129a15.306 15.306 0 0 0 4.656 1.863l-4.478 4.328a2.211 2.211 0 0 0 0 3.207c.46.441 1.06.664 1.658.664.603 0 1.202-.223 1.663-.664l4.405-4.254 4.405 4.254a2.406 2.406 0 0 0 3.321 0 2.211 2.211 0 0 0 0-3.207L27.246 30.8zm-3.244-6.316c4.422 0 8.018-3.473 8.018-7.738C32.02 12.473 28.424 9 24.002 9c-4.421 0-8.018 3.473-8.018 7.742 0 4.27 3.597 7.742 8.018 7.742zm0-10.945c1.833 0 3.321 1.437 3.321 3.207 0 1.765-1.488 3.203-3.321 3.203-1.828 0-3.321-1.438-3.321-3.203 0-1.77 1.493-3.207 3.321-3.207z" fill-rule="evenodd"/>
</symbol><symbol id="icon-phone" viewBox="0 0 16 16">
    <title>
        Shape
    </title>
    <path d="M8 0a8 8 0 0 0 0 16A8 8 0 0 0 8 0zm4.057 12.531H9.688v-.013a5.92 5.92 0 0 1-5.674-5.674h-.012L4 4.475c0-.261.213-.473.474-.475H6.37c.262.002.475.214.474.474v1.897a.474.474 0 0 1-.473.474h-.935a4.499 4.499 0 0 0 4.252 4.252v-.935c0-.263.211-.476.474-.476l1.896.001c.261 0 .472.212.472.473l.002 1.896a.478.478 0 0 1-.475.475z" fill-rule="nonzero" opacity=".5"/>
</symbol><symbol id="icon-registration" viewBox="0 0 15 16">
    <title>
        Combined Shape
    </title>
    <path d="M14.793 3.848a.744.744 0 0 1 0 1.03L13.288 6.43l-4.53-4.675-4.032 4.16-.997-1.028L8.26.213a.692.692 0 0 1 .996 0l1.012 1.044.508-.525a.689.689 0 0 1 .997 0l3.02 3.116zm-2.437 3.708l-6.061 6.061L2.15 9.472 8.21 3.411l4.145 4.145zm-7.312 6.99L.927 15.963a.688.688 0 0 1-.72-.176.741.741 0 0 1-.171-.743l1.372-4.25 3.636 3.752z" fill-rule="nonzero"/>
</symbol><symbol id="icon-search" viewBox="0 0 16 16">
    <title>
        Shape
    </title>
    <path d="M11.898 10.13a6.502 6.502 0 1 0-1.768 1.768l3.751 3.751a1.25 1.25 0 0 0 1.768-1.768l-3.751-3.751zm-5.397.372a4.001 4.001 0 1 1 0-8.002 4.001 4.001 0 0 1 0 8.002z" fill-rule="nonzero" opacity=".5"/>
</symbol><symbol id="icon-vk" viewBox="0 0 48 48">
    <title>
        vk
    </title>
    <path d="M24.003 0C37.253 0 48 10.747 48 24.003 48 37.253 37.253 48 24.003 48 10.747 48 0 37.253 0 24.003 0 10.747 10.747 0 24.003 0zM38.29 17.219c.215-.703 0-1.219-1.026-1.219h-3.391c-.863 0-1.26.446-1.476.938 0 0-1.724 4.11-4.168 6.78-.79.772-1.15 1.018-1.58 1.018-.216 0-.528-.246-.528-.948v-6.57c0-.842-.25-1.218-.97-1.218h-5.328c-.54 0-.864.391-.864.762 0 .8 1.222.984 1.348 3.232v4.883c0 1.07-.198 1.265-.629 1.265-1.15 0-3.946-4.13-5.605-8.853-.325-.918-.651-1.289-1.518-1.289H9.163c-.97 0-1.163.446-1.163.938 0 .878 1.15 5.234 5.353 10.995C16.156 31.867 20.104 34 23.697 34c2.156 0 2.423-.474 2.423-1.29v-2.973c0-.948.204-1.137.887-1.137.503 0 1.365.246 3.377 2.143 2.3 2.249 2.679 3.257 3.972 3.257h3.392c.969 0 1.453-.474 1.173-1.408-.305-.932-1.403-2.284-2.86-3.886-.79-.914-1.976-1.897-2.335-2.389-.504-.632-.36-.913 0-1.475 0 0 4.132-5.691 4.563-7.623z" fill-rule="evenodd"/>
</symbol><symbol id="icon-youtube" viewBox="0 0 48 48">
    <title>
        youtube
    </title>
    <path d="M24.003 0C37.253 0 48 10.747 48 24.003 48 37.253 37.253 48 24.003 48 10.747 48 0 37.253 0 24.003 0 10.747 10.747 0 24.003 0zM10 24c0 3.667.488 5.71.488 5.71.34 2.303 2.558 4.402 4.905 4.698 0 0 3.464.592 8.607.592 5.143 0 8.604-.591 8.604-.591 2.352-.281 4.54-2.4 4.892-4.696 0 0 .504-2.328.504-5.713 0-3.385-.504-5.713-.504-5.713-.334-2.297-2.537-4.423-4.878-4.749 0 0-2.19-.538-8.618-.538-6.429 0-8.615.538-8.615.538-2.346.299-4.535 2.45-4.896 4.746 0 0-.489 2.05-.489 5.716zm11.79 4.912c-.673.403-1.219.098-1.219-.677v-8.47c0-.777.548-1.078 1.219-.677l6.992 4.183c.673.403.67 1.057 0 1.458l-6.992 4.183z" fill-rule="evenodd"/>
</symbol></svg>