<svg width="28" height="32" viewBox="0 0 28 32" xmlns="http://www.w3.org/2000/svg">
    <title>
        calltouch_predict-32
    </title>
    <g fill-rule="nonzero" fill="none">
        <path d="M24.002 32a4 4 0 0 0-4-4H7.987a4 4 0 0 0-4 4h20.015z" fill="#FFF"/>
        <path d="M14 0C6.268 0 0 6.269 0 14c0 4.458 2.093 8.418 5.34 10.981h17.32C25.907 22.418 28 18.458 28 14c0-7.731-6.268-14-14-14zM9.598 18.679l-1.26 3.004-1.26-3.004-3.004-1.26 3.004-1.26 1.26-3.004 1.26 3.004 3.004 1.26-3.004 1.26zm10.398-6.664l-1.685 4.018-1.684-4.018-4.017-1.684 4.017-1.686 1.684-4.017 1.685 4.017 4.017 1.686-4.017 1.684z" fill="#1EB0CD"/>
    </g>
</svg>
